<mxfile host="app.diagrams.net" agent="Mozilla/5.0 (Windows NT 10.0; Win64; x64) AppleWebKit/537.36 (KHTML, like Gecko) Chrome/128.0.0.0 Safari/537.36" version="24.7.16">
  <diagram name="Page-1" id="m40n8pm2fc7japglgTBe">
    <mxGraphModel dx="1275" dy="472" grid="0" gridSize="10" guides="1" tooltips="1" connect="1" arrows="1" fold="1" page="0" pageScale="1" pageWidth="850" pageHeight="1100" math="0" shadow="0">
      <root>
        <mxCell id="0" />
        <mxCell id="1" parent="0" />
        <mxCell id="Jk4n_yjUz5KZP0dSAF0b-2" style="edgeStyle=orthogonalEdgeStyle;rounded=0;orthogonalLoop=1;jettySize=auto;html=1;entryX=0;entryY=0.5;entryDx=0;entryDy=0;startArrow=classic;startFill=1;strokeColor=#E68D09;strokeWidth=2;" edge="1" parent="1" source="nqCIsX4LDL96y5m1TIFh-1" target="nqCIsX4LDL96y5m1TIFh-4">
          <mxGeometry relative="1" as="geometry" />
        </mxCell>
        <mxCell id="nqCIsX4LDL96y5m1TIFh-1" value="&lt;font style=&quot;font-size: 20px;&quot;&gt;Client 1&lt;/font&gt;" style="rounded=0;whiteSpace=wrap;html=1;fillColor=#ffe6cc;strokeColor=#d79b00;strokeWidth=4;" parent="1" vertex="1">
          <mxGeometry x="-185" y="263" width="160" height="169" as="geometry" />
        </mxCell>
        <mxCell id="nqCIsX4LDL96y5m1TIFh-3" value="&lt;font style=&quot;font-size: 20px;&quot;&gt;Server&lt;/font&gt;" style="rounded=0;whiteSpace=wrap;html=1;fillColor=#dae8fc;strokeColor=#6c8ebf;strokeWidth=4;" parent="1" vertex="1">
          <mxGeometry x="-3" y="106" width="160" height="80" as="geometry" />
        </mxCell>
        <mxCell id="nqCIsX4LDL96y5m1TIFh-10" style="edgeStyle=none;curved=1;rounded=0;orthogonalLoop=1;jettySize=auto;html=1;fontSize=12;startSize=8;endSize=8;strokeColor=#009900;strokeWidth=2;fillColor=#d5e8d4;startArrow=classic;startFill=1;" parent="1" edge="1">
          <mxGeometry relative="1" as="geometry">
            <mxPoint x="242.45" y="263" as="sourcePoint" />
            <mxPoint x="154.00172413793092" y="187" as="targetPoint" />
          </mxGeometry>
        </mxCell>
        <mxCell id="nqCIsX4LDL96y5m1TIFh-4" value="&lt;font style=&quot;font-size: 20px;&quot;&gt;Client 2&lt;/font&gt;" style="rounded=0;whiteSpace=wrap;html=1;fillColor=#ffe6cc;strokeColor=#d79b00;strokeWidth=4;" parent="1" vertex="1">
          <mxGeometry x="174" y="263" width="160" height="169" as="geometry" />
        </mxCell>
        <mxCell id="nqCIsX4LDL96y5m1TIFh-8" style="edgeStyle=none;curved=1;rounded=0;orthogonalLoop=1;jettySize=auto;html=1;entryX=0.296;entryY=0.978;entryDx=0;entryDy=0;entryPerimeter=0;fontSize=12;startSize=8;endSize=8;fontColor=#000000;strokeColor=#009900;strokeWidth=2;startArrow=classic;startFill=1;" parent="1" edge="1">
          <mxGeometry relative="1" as="geometry">
            <mxPoint x="-97.00349949477942" y="264.76" as="sourcePoint" />
            <mxPoint x="2.0499999999998977" y="186" as="targetPoint" />
          </mxGeometry>
        </mxCell>
        <mxCell id="nqCIsX4LDL96y5m1TIFh-9" value="TCP Connection" style="text;html=1;align=center;verticalAlign=middle;resizable=0;points=[];autosize=1;strokeColor=none;fillColor=none;fontSize=16;rotation=-40;fontColor=#000000;" parent="1" vertex="1">
          <mxGeometry x="-134.44" y="199" width="135" height="31" as="geometry" />
        </mxCell>
        <mxCell id="nqCIsX4LDL96y5m1TIFh-11" value="TCP Connection" style="text;html=1;align=center;verticalAlign=middle;resizable=0;points=[];autosize=1;strokeColor=none;fillColor=none;fontSize=16;rotation=40;fontColor=#000000;" parent="1" vertex="1">
          <mxGeometry x="152" y="203" width="135" height="31" as="geometry" />
        </mxCell>
        <mxCell id="Jk4n_yjUz5KZP0dSAF0b-1" value="&lt;font style=&quot;font-size: 16px;&quot;&gt;UDP Connection&lt;/font&gt;" style="text;html=1;align=center;verticalAlign=middle;resizable=0;points=[];autosize=1;strokeColor=none;fillColor=none;" vertex="1" parent="1">
          <mxGeometry x="8.5" y="313" width="137" height="31" as="geometry" />
        </mxCell>
      </root>
    </mxGraphModel>
  </diagram>
</mxfile>
